<mxfile host="app.diagrams.net" agent="Mozilla/5.0 (X11; Linux x86_64; rv:140.0) Gecko/20100101 Firefox/140.0" version="27.2.0">
  <diagram id="C5RBs43oDa-KdzZeNtuy" name="Page-1">
    <mxGraphModel dx="1426" dy="736" grid="1" gridSize="10" guides="1" tooltips="1" connect="1" arrows="1" fold="1" page="1" pageScale="1" pageWidth="827" pageHeight="1169" math="0" shadow="0">
      <root>
        <mxCell id="WIyWlLk6GJQsqaUBKTNV-0" />
        <mxCell id="WIyWlLk6GJQsqaUBKTNV-1" parent="WIyWlLk6GJQsqaUBKTNV-0" />
        <mxCell id="ngsBxXPxbdn5Fh7cUGBR-0" value="" style="rounded=1;whiteSpace=wrap;html=1;strokeColor=#B3B3B3;" parent="WIyWlLk6GJQsqaUBKTNV-1" vertex="1">
          <mxGeometry x="240" y="40" width="360" height="240" as="geometry" />
        </mxCell>
        <mxCell id="ngsBxXPxbdn5Fh7cUGBR-2" value="&lt;div style=&quot;font-size: 24px&quot;&gt;&lt;font style=&quot;font-size: 20px&quot;&gt;API&lt;/font&gt;&lt;/div&gt;&lt;div&gt;Uvicorn&lt;/div&gt;" style="rounded=1;whiteSpace=wrap;html=1;" parent="WIyWlLk6GJQsqaUBKTNV-1" vertex="1">
          <mxGeometry x="280" y="60" width="120" height="80" as="geometry" />
        </mxCell>
        <mxCell id="ngsBxXPxbdn5Fh7cUGBR-8" value="&lt;div style=&quot;font-size: 24px&quot;&gt;&lt;font&gt;Web&lt;/font&gt;&lt;/div&gt;&lt;div&gt;NGINX&lt;br&gt;&lt;/div&gt;" style="rounded=1;whiteSpace=wrap;html=1;" parent="WIyWlLk6GJQsqaUBKTNV-1" vertex="1">
          <mxGeometry x="440" y="60" width="120" height="80" as="geometry" />
        </mxCell>
        <mxCell id="ngsBxXPxbdn5Fh7cUGBR-9" value="" style="endArrow=none;html=1;exitX=1;exitY=0.5;exitDx=0;exitDy=0;entryX=0;entryY=0.5;entryDx=0;entryDy=0;" parent="WIyWlLk6GJQsqaUBKTNV-1" source="ngsBxXPxbdn5Fh7cUGBR-2" target="ngsBxXPxbdn5Fh7cUGBR-8" edge="1">
          <mxGeometry width="50" height="50" relative="1" as="geometry">
            <mxPoint x="280" y="470" as="sourcePoint" />
            <mxPoint x="330" y="420" as="targetPoint" />
          </mxGeometry>
        </mxCell>
        <mxCell id="ngsBxXPxbdn5Fh7cUGBR-10" value="" style="rounded=1;whiteSpace=wrap;html=1;strokeColor=#B3B3B3;" parent="WIyWlLk6GJQsqaUBKTNV-1" vertex="1">
          <mxGeometry x="640" y="40" width="280" height="120" as="geometry" />
        </mxCell>
        <mxCell id="ngsBxXPxbdn5Fh7cUGBR-11" value="" style="shape=image;verticalLabelPosition=bottom;labelBackgroundColor=#ffffff;verticalAlign=top;aspect=fixed;imageAspect=0;image=data:image/png,iVBORw0KGgoAAAANSUhEUgAAAGQAAABkCAYAAABw4pVUAAAPcHpUWHRSYXcgcHJvZmlsZSB0eXBlIGV4aWYAAHjarZprVuMwEoX/axWzBKn0Xo6e58wOZvnzlZwAgUBD06TBaduxpapb996SY9b//rvNf/iJYoMJMZdUU7L8hBqqNN4Ue/3U89fZcP6enxRux9zjfvNyQNjl2frrv7ndzm/sj68fuN/D9cf9ptyOSLldyL1c+Px4vbO+n28HyX659rvbQExdtyHXkt8Otd8uNO4jLq+/4WVY10b/bx52ZKI0IzfyIss7b8/fco3A66/z7Wwb7xLncZT3wSfDJp5T3RWQh+ndt9a+DdBDkO/vzPvov7x7F3xpt/3+XSzTLUa8eXrAxXf7/ctt5O2N/cuI5PGAW85/mM7td+9Z9l7X7FpIRDTdEHWC7e6X4cROyP35WOKV+Y28z+dVeRXb7CDl0w7beQ1XnXDrbVxw0zW3GYluhxsMMciSzFZkkCjdV3yWKsNrnoK+3Jbsq59kTfyQZbxnt7yMxZ371nO/4Qp3no5TxXExx0c+fZmvDv7kZfYeGiJny0usGJcorhmGZk7/chYJcfuWt3gCfH/d0m/f4AeoksF4wlyYYLP9ukSP7hVb/uTZc15ke5WQM3neLkCIuHdkMM6TAZucjy45m0Wyc8SxkKDGyMUH6WTAxSiTQUrwVIvJUkTvzWeyO+dKlCS6G24iEdEnn8lN9Y1khRDBTw4FDLXoY4gxpphjMbHGlnwKKaaUclKSa9nnkGNOOeeSa27Fl1BiSSWXUmppVaqHA2NNNddSa21NTONGjWs1zm/s6dJ9Dz321HMvvfY2gM8II4408iijjjZl+glNzDTzLLPOtpxZMMUKK6608iqrrrbB2vY77LjTzrvsuttL1m5Z/fD6QdbcLWtyMqXn5ZessdfkfL+EUzqJmjMyJsGR8awZANCiObPFhSCaOc2ZrUJRRGGQUXNjptOMkcKwnMTtXnL3mrlv5c3E8q28yZ8yZzR1/yJzhtR9zNuTrE3VuXEydlWhxtR6qm/bPn02YdYeQ2fMYlOZzNP2KisUV0Zxs7gd25o5zGm5d+icWZerQhhSkBJ8tSEhcmYn66eUabNekhMdEp6JWErVdmITKpe0bg67Q5uhqZY2/r3bms8O/HT77EJEMuzgeppRlku5NrITj3DaEiwDhGLHmbNsGMCnNMUsTrVUi9c52wWoROccACpT7lNS5yN9Okoc0ADDGFy2DVrfGa1Nc+Wy/DQDc5BGdCGqHfj7rfntBd5cSJqOMsaNByBCoTEhBwCXC3OApaqYS5TVbJJLFfCxqNpCHt3Ic+/cmL3ZFjyvvBd1tYEXGPK6LZ2Lbu/1st5vrrrjAJc2cljiyHs7ymgPqavzSWikcam9wCRqLKtYP8YqgLDHuUvqjWpyaVU0UcD38L5E8akNYmzrWgzKk0CILaHq7aT+Z9s1fbC7ZNfK6tEwgCmj7qRsIP0ESwhf3n34mbdCWQfadhhnypG9Z/KB2e5Rs4penIbNb6KEti3ilLspMAY11aGSmpbDM05xDAqAL4ux232vCZxXhsJ8i2HLwlHDJGsm8VtammpJjSJB39y3THrPzO3WtnvlMFoeDKdfo4TmtteBtshuUi8yU417R7MytohcSQ+t++soZXc7DtTOCcTpOuU14OJrsqXlYDv8W41AohWWQK/rHqmP7EeOC6w2arBHO/2yGT0gQGWuglAHoR6BiVVC3Ym/lJshMDKX0jH0I1Ij9RoRdgX5prXQdCWkbheJbaw1qfceK96pTlfnhPcZc2mGjCBehJ45+G9WV26wn83DpdkYpcw9hxnQiINi47BlbjtLjswiEk0Y2Q87l02eYioJ5m62+jVm5yyCFgOAqWovJTdTXVyDCwC/NAC/LckXdGZgPJsLKQOz0HPRu1O1RZWxY+yRWKIGy4EazYC5Y765tjQ7o/TdqkKgDfQam96YOe7mZLO6TIz0XduRszY0AMi2j+Y6YeQVdLvjdH3XqbbosyPPAueXlkjUpGAUAF6dnjoBOA09Y99cbg9lhAWqLCrHgCNgZMB1HIiSXMSyDTOfHb8d/agLiph4B8x4CxijiLlG5HZ+xYp7h5VdO8F/g5VRw6jJh6q02YIzlcuJ0hXYvjAoikGmOzVVqUvKGpjdE97dj7Kor5HinL0mRzrpC1RfqLW0CnHsNHMVf+KL0K7YQlSIYg3vi5q7NiUM6EvGGMddVQnT0ARz5z60pppdpDT3BGYdokgF4lIm1s0VOBUfp+qutgFkC1zM52KHsusQM7zjFlj/vmicV5sL3ARq8WsUZvoWIsMv1Q1hwUdg0fuq0gJTzodZXNsbGu9YvCHRqpGkYBv6AHDFyF5NiWl1ObyUFDSp6cECI7MP8lQ2K6mlZ3tvDGUetOGVDC8qJPbrQONg9kIsNIknWG5dJZNgO31n2vbl1IwDkbFeZ9yP3w7qNPTwQ3HE6vNknh0pVuc/SUug0ZOSqD04Uwadi/O9FMhSvVXUhnBg6Mo+1+i34MFLPuFSkO5pg1kMAgLBooWCbqzcY65CJOCijPUbYavW4mK7Sq7WxkL3K+Lg0S3oRvE4lSGJPCd1SHVBYkXwgBuXpW0hdKTYaZqA2HPAZE4uhkwIBYRyo5IMmigEE65aCFjcoeYDV1u9WmEsABALwBe37hkBerwG86H4FBytUZZDtaB7GmhzloRwCDWiEIxoW98TqaXRoHgJE/rduChMRq1T1QBypDXKVmZyfhcKEFU2TF4W9FgE0UJmaA4CLqjSMyS4Fz72iDSaTlboIGgPKPqNO4FBAoSfJSxP5w4fLdLw9Ul6DgX+gHpd62G0CGAKEYuEz8ZytAHdAAhxlXqHUcliQUdm8RhvbLYqiJpNvNwNRxzMaqvingF70A2spQ7DThToCwFQpmrXUYAvoLTBPtAwn6m63zw58MSSf+Rxhv7gNyA2lROQUHLXkcLVOtJx1RhDjbiJlJ4dvh28Qmc0dkA5Y7pw7DOIwo3ecbSwSgbI8CEuYpcCZWnnpd0bSQVetAN1gRs178uMrbiYoGIqhlvDxx0dO9Po533jdGbDsH0oKVaxFZeMMoByXYJRnBsaWcB3WIjyzrHSiTU3Wl30UzOuiPiDfuhBfTYekDaC/PjRWwtZjhg4dMl4n+l1tePKtB3TN18dRnfQXdVzuazZ3jfKgudpNwYiVRZWEMLFfpRExZkhx1vRm1iHldRuDYRuajzQvMYy4Brkh5oZSiu5T9X9lHBXFDgfCTiUB8cG5+yl5bM8Nde1DQcMCX8wMGrg00VdlMLOdLFzblEmwSl5ahIPa7yLfQShsgjkdJlWWVk3L8CDevXguPlbtxMLqS3cFBp5oxXGwWc4PbgAGeE/a6E7LlOzKmt4gUarwOwnJYjsUocNpRJYluAKhBrS2oTMDEhq9wzVOTfOyuhIxwngbIudQDi3XKvXvg5bOx2W1NWg1jFkZhicwoZaQ44UaYOCmcyMPtITykx6CC0ZYkw0pp5WwftOt9HRawr5rDUMxlMHHQ0oNJuO+zhrrnZ0A7MH+Nux5bjH7zo68ydL911HZ/5k6b7r6MyfLN33HB3aD3v3M+hz13TeY+q4OZBZtLKrok5MFtpakCkmBvbyyNwYVKjTNG4iZ7oCgdKDs08VaxEHoJtbwt0jI2RG6F6XriYUD9UE7OOiLyV7iTupRFa6I7fOjQ8toc6AjyvDlplpASaApxzgtRS3Gx3XT83hLhDqs+oUEd5UqjeYLem40p6xWXyEogSjXuE5Go1ndbosjRzZopj06wMLo+si3nhIRJoud+C7ZoURMBRbukUKKRx1mot4VK2S5QG5LIYjaYqNXIHRLPj2jAjQ7Un/yaCxG+pBHY53Z+3HB84vw8tK7ESloXbliCgT7xha5gxXkctiqFYUW5e6Rlt47DVirdAW5ZhbHeDmTABBo5bshe1EZZM+LMnxTqJVTd//cs7DGQBCzwBrs7zE5WYYtVW9HKO2qv1UhFHb2PZ8L5xHN48cqdcbM+Z8dQf1wHVicWid+VSY1xHz8dATY/uN3ts8b75/3nubG0/QZGCl9lXPe+p6IV6EmwvOqoBzyP8rvXMPa2xduxbo2ufUXW+BroK2wibcINqj+F3pBb9wHEk+FYuNmAZ4XQYSqODzUOZBorINKA63crIpPkDX0diShiqRNsgNPFeLeDOZRJMiJusywGmQ086Z30RJTmX8dBaa4XhLE7bqUEc8UccNGCltnCbo15WuESyczRUVkZSi6o5bup60JAr9U0eObssTCRoAxhBwg9wSzZPXpSIkmz2CMDUTsbhqsndUbk3+lBQeptI8+TCYkQvQAcUoPgD15cBUo+UDaw01aDdOf2nXd8iXDtxU4AhzvkDJQOglXk95JhXmZ1rxuVSYn2nF51JhfqYVn0uF+ZlWfC4V5lta8XH5cK08YB81btPRFBQji6Z66hOqBaJ0mTJtXQuYHS7s9J9aiF0NB6zZ6ABokeigIXR4gWql3e9tFG/UiXkMBDTG59wnS99fkh81Jzj/Lyn0KUHKh4YaZjRPqfGRGC/ue0+K7/aaHxPih6XIi/DMU8a7k+JTxnxN3p0NueowFx0qZz8hRF2xpd+P2vK8kuHTBxHmD08q/qhndzkzv9Wzu5yZ3+rZ/Yj5rZ7dE2h+q2f3BJrf6tlfPYT6quLMmwz+quLMF2bkRxVn/jJlHyrOfJGTH1WcuUru9xVnfpauzyvO/BsHuYr5Nw6Sdv07DnKFxMDanLriFuaJ8MRTXE+YvND5V9NTT6fBZkD67JxWt4dF24mW15GwTWSPTyB04dJUhV+Ymj90B1070hl1qV7XypHDad0ZJgbpGq47D/RIlNecn+jgdK4nXXgTWWdoBMulTZtFlxGjH+f5yybQo0fby/ZZn8DEzi6352ortS+f3ZnPH+qt0ofQ0bTExPCGPUtP2DRuIt47NNVjH4lQWLk5sxdaT0S0X2uHKh5mc82FmeiTOtBar5XbqM/62vmCC9jNZMVYt9rnwWx90ibhe2VjjFeaYVVHN7dKbX7OnfCCXmjllvEpd2xMP5ZpU1Jj1rqCrs94l3Qpo9bvPPQ1/+Kp8fcuhJ9plorwqdUk24dF+kYXPXS+DFQsHtjDkLGp15otnbNrznbSSNBDeM/Z4gato6uc7bSR5jyuvGNfrXIR8XQFNL7oGoEc1p4vLqxGSMAYbcePvzpgfvfdg+57zDNctUZ9WF0+z+AGB8gUdoBBKezY2qx0IQtfK2FN/WpK0ufKkqs+CBQmgMubOEVnSLzvtPctaScVgy3nm236JYSd5Zoq7F7N/wFCaM0NtJVvgAAAAYRpQ0NQSUNDIHByb2ZpbGUAAHicfZE9SMNAHMVfU0WRioodRBwyVCcroiKOWoUiVAi1QqsOJpd+QZOGJMXFUXAtOPixWHVwcdbVwVUQBD9A3NycFF2kxP8lhRYxHhz34929x907QKiVmGa1jQOabpvJeExMZ1bFjlcI6EUfxhCVmWXMSVICvuPrHgG+3kV5lv+5P0e3mrUYEBCJZ5lh2sQbxNObtsF5nzjMCrJKfE48atIFiR+5rnj8xjnvssAzw2YqOU8cJhbzLay0MCuYGvEUcUTVdMoX0h6rnLc4a6UKa9yTvzCU1VeWuU5zCHEsYgkSRCiooIgSbERp1UmxkKT9mI9/0PVL5FLIVQQjxwLK0CC7fvA/+N2tlZuc8JJCMaD9xXE+hoGOXaBedZzvY8epnwDBZ+BKb/rLNWDmk/RqU4scAT3bwMV1U1P2gMsdYODJkE3ZlYI0hVwOeD+jb8oA/bdA15rXW2Mfpw9AirpK3AAHh8BInrLXfd7d2drbv2ca/f0ApzxyvFbbvHQAAAAGYktHRAD/AP8A/6C9p5MAAAAJcEhZcwAACxMAAAsTAQCanBgAAAAHdElNRQflAhARLjpwaz23AAAGNklEQVR42u3cXWhTeRrH8e//pE4dqXvjgrs74E2ZGy93HGSuvWnz0iYmfUn6EsELB2R2drf3JiFVUVzp6MggxTdaUMdYUct2RRGKIopbEbHRFZHsoFVqa2uLEnPanLmxQ2ecgaZJc/6n8/zuSnPOyf/55Lw8503xKwmFQh8rpUJAAPgM+BPwEZJikgNeAENAn2VZqVQqlf3lh9T8P4LBIIZhhIF/AX+WGi5pRoB/ZLPZ7y9evPghSCgUcimlvgW+lFqVNQcty/p7KpXKA1S8x0ApdQjYJvUpe75SSlnA1wAGgFIqLBi25m8NDQ2bq6qqUMFg8GPDMJ6833FL7MsP+Xz+U8MwjCbB0CLrDMPwG+8PbSV6JGAAn0sdtMlnhmyutMonxi+bQ4mtWWVIDfSKgAiIREAERCIgyyQVhU6wZs0aOjo6UKqwo+Xh4WF6e3sdWSS/38/GjRsLnq67u5snT54sLcjKlSuprq4uGKS6uhqXy8WJEycchREIBGhqasIwCt+YVFVV6b3JcrvdRKNRLMtyzJqxWAxH7EOUUrjdbrZs2aI9it/vp7m5uawYtuzU51Ci0ahg6HKUpZTC4/HQ3t6uHUZ9fb1tGLYe9s6htLW1aYURDodtw7C9D1FK4fV6tUCpq6uzHUOLxnAOpbW11VaMSCRiO4Y2nbpSCp/PZwuKLmuGdqdO7EDx+XyEw2FcLpc2+zGtzmXNR1nqPsXn8xGJRLTC0A6kXGuK1+vVEkNLkDmUuro6WlpalgSjpaVFSwxtQeajRCKRks3T4/FojaE1yBxKfX19SVA8Hg+tra1aY2gPMh8lHA4veh5ut9sRGI4AmUPx+/2LQnG73bS1tTkCo6wguVyuJCjNzc0Lnqa2trYkGO/evVt+ICdPnmR8fLxolEAgsCCU2tpa2tvbi8aYnp7myJEjZbt+UzaQ8fFxkskkL1++XHKUUmG8fv2aPXv2kMlkluc+ZGRkhEQiwYsXL0qC0tTU9MH/ampqSoIxMTHB7t27efTo0fLeqY+OjhKPx3n27FnRKJs3b6axsfFnGNFotGiMsbExOjs7C75jpBSpwIa8evWKWCzGjh07WLduXVEowWAQgKmpqZJgjI6O0tnZWfRa7LjD3qmpKWKxWNG/wjmUUmA8f/6ceDxuG4btfcibN2+Ix+NFb6eVUkVjPH36lFgsxtjY2O+7McxmsyQSCdLptG3fIZPJEIvFmJyclE4dwDRNkskk9+7dK/uyHz9+TDweZ3p6Wk6dzM/s7Cy7du1iaGiobMt8+PAhiUSCt2/f/v5OnSwk+XyevXv3cvPmzSVf1v3790kmk2U9LeI4EADLsti/fz/Xrl1bsmXcvXuXnTt3YpqmbsO3pw9ZSA4ePEgul2PTpk0lne/t27fZt2+ftvcWawsCcPjwYUzTpKampiTzu3HjBl1dXToPWW8QgKNHj2KaJl6vt+BnUuZncHCQQ4cO6T5c/UEAenp6yOVyBAKBRd3QdvnyZbq7u50wVGeAAJw+fRrTNGlsbFwwimVZDAwMcPz4cacM01kPffb19dHb28vs7OyCMC5cuOAoDEetIXPp7+/HNE2i0SgVFRW/2c+cPXuWM2fOOG14zgMBuHTpEqZpsnXrVlasWPFBx3/q1CnOnz/vxKE5EwTg6tWr5HI5tm3bRmVlJQAzMzP09PQwMDDg1GE5FwTg+vXrmKbJ9u3bcblcHDt2jCtXrjh5SM4GAbh16xamabJ69WoGBwedPhzngwDcuXOH5RJ514mASAREQCQCIiASAREQiYAIiERAJAIiIBIBERCJgAiIREAERCIgEgEREEnhKfg2oJmZGSYmJgp+VkO3Z/nKMebFvJJKNTQ0WPK7lE2WREAERCIgAiIRkOUPYkoZtIlpAM+lDtpkxAD+K3XQJrcN4JzUQZucMyzLSgHPpBa254d8Pp8yUqlUFuiQetiefw4NDeUMAMuyTgPfSU1syzeTk5NnM5kMLoB0Os369ev/o5T6I/C51Kes6crn8x39/f0WwE8vu02n09batWv/vWrVqv8BXwB/kFotaf4PbN2wYUPXgQMHfroE8qtXXEKhUKVSqgHwA38F/gJUSg2LShYYed9mnLMsq+/Bgwe54eHhn33oR2cXJ/AS1k74AAAAAElFTkSuQmCC;" parent="WIyWlLk6GJQsqaUBKTNV-1" vertex="1">
          <mxGeometry x="680" y="70" width="60" height="60" as="geometry" />
        </mxCell>
        <mxCell id="ngsBxXPxbdn5Fh7cUGBR-12" value="&lt;div style=&quot;font-size: 24px&quot;&gt;&lt;font style=&quot;font-size: 20px&quot;&gt;Desktop/Mobile&lt;/font&gt;&lt;/div&gt;&lt;div style=&quot;font-size: 24px&quot;&gt;&lt;font style=&quot;font-size: 20px&quot;&gt;Webclient&lt;/font&gt;&lt;/div&gt;" style="text;whiteSpace=wrap;html=1;" parent="WIyWlLk6GJQsqaUBKTNV-1" vertex="1">
          <mxGeometry x="750" y="70" width="180" height="30" as="geometry" />
        </mxCell>
        <mxCell id="ngsBxXPxbdn5Fh7cUGBR-13" value="" style="endArrow=none;html=1;exitX=1;exitY=0.5;exitDx=0;exitDy=0;entryX=0;entryY=0.5;entryDx=0;entryDy=0;" parent="WIyWlLk6GJQsqaUBKTNV-1" source="ngsBxXPxbdn5Fh7cUGBR-8" target="ngsBxXPxbdn5Fh7cUGBR-10" edge="1">
          <mxGeometry width="50" height="50" relative="1" as="geometry">
            <mxPoint x="650" y="410" as="sourcePoint" />
            <mxPoint x="700" y="360" as="targetPoint" />
          </mxGeometry>
        </mxCell>
        <mxCell id="w7KfLGUki70QjQJ02HTH-0" value="" style="rounded=1;whiteSpace=wrap;html=1;strokeColor=#B3B3B3;" parent="WIyWlLk6GJQsqaUBKTNV-1" vertex="1">
          <mxGeometry x="40" y="40" width="160" height="240" as="geometry" />
        </mxCell>
        <mxCell id="ngsBxXPxbdn5Fh7cUGBR-1" value="Media Files" style="aspect=fixed;html=1;points=[];align=center;image;fontSize=12;image=img/lib/azure2/general/Files.svg;strokeColor=#B3B3B3;" parent="WIyWlLk6GJQsqaUBKTNV-1" vertex="1">
          <mxGeometry x="88" y="65" width="64" height="70" as="geometry" />
        </mxCell>
        <mxCell id="ngsBxXPxbdn5Fh7cUGBR-5" value="PostgreSQL &lt;br&gt;DB" style="aspect=fixed;perimeter=ellipsePerimeter;html=1;align=center;shadow=0;dashed=0;spacingTop=3;image;image=img/lib/active_directory/database.svg;strokeColor=#000000;" parent="WIyWlLk6GJQsqaUBKTNV-1" vertex="1">
          <mxGeometry x="130" y="190" width="50" height="37" as="geometry" />
        </mxCell>
        <mxCell id="w7KfLGUki70QjQJ02HTH-1" value="&lt;div style=&quot;font-size: 24px&quot;&gt;&lt;font&gt;Worker&lt;/font&gt;&lt;/div&gt;&lt;div&gt;Celery&lt;/div&gt;" style="rounded=1;whiteSpace=wrap;html=1;" parent="WIyWlLk6GJQsqaUBKTNV-1" vertex="1">
          <mxGeometry x="440" y="180" width="120" height="80" as="geometry" />
        </mxCell>
        <mxCell id="w7KfLGUki70QjQJ02HTH-2" value="&lt;div style=&quot;font-size: 24px&quot;&gt;&lt;font&gt;Scheduler&lt;/font&gt;&lt;/div&gt;&lt;div&gt;Celery&lt;/div&gt;" style="rounded=1;whiteSpace=wrap;html=1;" parent="WIyWlLk6GJQsqaUBKTNV-1" vertex="1">
          <mxGeometry x="280" y="180" width="120" height="80" as="geometry" />
        </mxCell>
        <mxCell id="w7KfLGUki70QjQJ02HTH-3" value="&lt;div&gt;ActiveMQ&lt;/div&gt;&lt;div&gt;Broker&lt;/div&gt;" style="sketch=0;outlineConnect=0;fontColor=#232F3E;gradientColor=none;fillColor=#E7157B;strokeColor=none;dashed=0;verticalLabelPosition=bottom;verticalAlign=top;align=center;html=1;fontSize=12;fontStyle=0;aspect=fixed;pointerEvents=1;shape=mxgraph.aws4.mq_broker;" parent="WIyWlLk6GJQsqaUBKTNV-1" vertex="1">
          <mxGeometry x="60" y="190" width="45.22" height="40" as="geometry" />
        </mxCell>
        <mxCell id="w7KfLGUki70QjQJ02HTH-5" style="edgeStyle=orthogonalEdgeStyle;rounded=0;orthogonalLoop=1;jettySize=auto;html=1;exitX=0.5;exitY=1;exitDx=0;exitDy=0;" parent="WIyWlLk6GJQsqaUBKTNV-1" source="ngsBxXPxbdn5Fh7cUGBR-5" target="ngsBxXPxbdn5Fh7cUGBR-5" edge="1">
          <mxGeometry relative="1" as="geometry" />
        </mxCell>
      </root>
    </mxGraphModel>
  </diagram>
</mxfile>
